<svg xmlns="http://www.w3.org/2000/svg" version="1.0" preserveAspectRatio="xMidYMid meet" viewBox="409.6 305 2067.41 870.73">
 <g fill="#f4f1ea">
  
  
  
  
  
 </g>
 <g fill="#3f4144">
  <path d="M1282 1174.5 c-37.4 -5.4 -64.5 -17.6 -93.1 -41.9 -25.5 -21.7 -45.3 -57.4 -53.1 -95.7 -2.1 -10.2 -2.3 -14.2 -2.3 -37.4 0 -27.6 0.9 -36.4 6.2 -62 12.7 -62 42.3 -122.4 82.7 -168.9 4.7 -5.5 8.6 -10.2 8.6 -10.6 0 -0.4 -4.1 -2.4 -9 -4.5 -28.5 -12 -53.2 -39.2 -58.6 -64.5 -3.9 -18.6 1.4 -38.8 19.7 -73.9 10.1 -19.5 18.8 -32.1 29.9 -43.1 16 -16 26.1 -20.6 45 -20.4 14.7 0.2 22.9 2.7 43.5 13.4 21 10.9 25.4 12.4 35.7 11.8 13.1 -0.7 19.3 -4.9 32 -21.6 2.7 -3.4 5.3 -6.2 5.8 -6.2 5.2 0 -3.6 19.7 -18.3 41.3 -20.6 30.2 -44.5 42.9 -70.3 37.2 -4.3 -0.9 -12.6 -3.6 -18.4 -6 -15.1 -6.1 -23.4 -8.5 -32 -9.2 -15.7 -1.1 -33.1 6.2 -37 15.7 -4.8 11.5 20.8 43 44.5 54.7 13.5 6.7 18.5 7.8 36 7.8 15.3 -0.1 16.4 -0.2 25.2 -3.3 5.1 -1.7 12.5 -4.8 16.5 -6.8 13.6 -6.8 49.6 -30.6 75.8 -49.9 19.7 -14.6 22 -15.6 22 -9.4 0 6 -11.9 39.4 -20.6 57.9 -3.8 8.1 -5.4 10.3 -9.3 13.3 -10.6 7.9 -31 22.3 -58.1 41.2 -15.7 10.8 -36.1 25.5 -45.5 32.5 -52.6 39.6 -89.7 82.2 -108.3 124.6 -9.3 21.1 -13.2 39.4 -13.2 61.6 0 33.3 6.8 57.1 23.4 82.1 22.5 34.1 57.8 56.8 102.6 66.2 30.3 6.4 79.5 3.5 112.3 -6.4 28.3 -8.7 55.4 -22.7 80.2 -41.4 14.3 -11 34.6 -31.5 56.1 -57.1 1.8 -2.1 2.8 -2.6 3.6 -1.8 3.4 3.4 -20.5 50.3 -39.5 77.2 -19.9 28.2 -41.2 49.7 -65.3 65.8 -27.9 18.7 -57 30.7 -88.4 36.4 -14.9 2.7 -52.5 3.4 -67 1.3z" data-index="5" style="opacity: 1;"/>
  <path d="M1813 1172.3 c0 -0.9 2.7 -5.9 6.1 -11 6.2 -9.6 12.5 -22.1 15.3 -30.5 5.9 -17.7 4.6 -42.9 -3.1 -58.8 -4.1 -8.5 -17.7 -21.6 -28.1 -26.9 -25.5 -13.1 -64.9 -14.2 -109.2 -3.1 -34.2 8.6 -80.2 28.6 -109 47.3 -35.6 23.2 -51.7 35.5 -70.1 53.4 -7.4 7.3 -13.8 13.3 -14.2 13.3 -2.5 0 0.7 -12.4 6.3 -24.6 7.2 -15.6 17.6 -28 40.7 -48.6 26.6 -23.8 55 -42.3 92.8 -60.8 54.6 -26.6 109.1 -39.9 147.7 -36.2 16.2 1.6 26 4.2 38.7 10.4 8.9 4.2 11.7 6.2 18.6 13.2 9.3 9.2 14.1 17.7 17.6 31.1 3 11.2 3 31.1 0 44.8 -4.9 23 -16.8 49.3 -32.2 71.7 -6.9 10 -8.4 11.7 -12.3 14.8 -3.4 2.6 -5.6 2.8 -5.6 0.5z" data-index="6"/>
  <path d="M640.5 1164.9 c-72.5 -3.6 -132.3 -27.5 -176.3 -70.3 -28.2 -27.4 -44.5 -55.8 -52.4 -91.3 -1.9 -8.5 -2.2 -12.9 -2.2 -33.3 0 -21.9 0.2 -24.3 2.7 -36.1 5.3 -24.2 14.4 -47.9 25.5 -65.6 12 -19.4 29.5 -38.9 45.9 -51.2 28.4 -21.3 60.5 -36.1 101.3 -46.6 8 -2 14.8 -4.2 15.2 -4.8 0.4 -0.7 0.8 -4.9 0.8 -9.5 0 -14.8 3.8 -26.9 17 -53.8 11.8 -24.1 18.4 -27.6 41.5 -22 34.4 8.4 61.4 24.3 65.5 38.7 2.8 9.5 0.6 17.5 -12.2 45.7 -12.4 27.3 -16.9 35.1 -24.2 42 -7.2 6.8 -15.5 10.6 -36.6 16.7 l-16.5 4.7 -11 20.1 c-19.2 35.2 -25.9 50.6 -31.3 72.4 -4.3 16.9 -5.5 27.6 -4.9 41.8 1 22.8 8.1 40.8 21.5 54.4 12.3 12.4 26.3 18 44.8 18.1 23.6 0 46.7 -8.6 72.6 -27.1 15.7 -11.3 25.2 -19.5 40.8 -35.6 15.9 -16.3 26.7 -29.3 57.4 -69.3 27.9 -36.3 38.1 -48.4 51.6 -61.3 18.7 -17.8 37.7 -31.2 56 -39.3 5.2 -2.3 10.2 -4.4 11.1 -4.7 1.5 -0.5 1.5 -1.1 0.3 -5.8 -0.8 -3 -1.4 -7.2 -1.4 -9.4 0 -5.3 2.5 -19.3 5 -28 2.9 -10 4.3 -29.2 3.7 -49 -1 -26.9 -3.9 -43.3 -17.7 -98 -10.3 -41.2 -13.9 -59.6 -14.7 -76 -1.5 -31.5 9.1 -61.5 36.5 -103.2 4 -6.2 7.8 -11.6 8.4 -11.9 0.5 -0.4 1.6 0 2.3 0.7 1.2 1.2 0.9 2.9 -1.9 10.9 -6 17.2 -6.9 23.2 -6.3 42.4 0.6 20.2 3 32.5 15.6 82.6 10.6 42.1 13.2 57.3 13.8 81.5 0.7 23.7 -0.2 31 -7.3 58.2 -7.3 28.4 -7.7 30.6 -6.3 37.3 3.3 16.2 17.3 29.8 45.8 44.6 20.5 10.6 24.4 19.2 18.7 41.5 -4.3 16.8 -18 49.2 -22.8 53.6 l-2.4 2.3 -3.5 -2.6 c-17.9 -13.4 -47.6 -15.3 -75.9 -4.7 -26 9.7 -46.3 23.3 -69.5 46.7 -15.6 15.7 -26.4 29 -51.6 63.6 -24.4 33.5 -41.9 54.9 -57.7 70.8 -33.3 33.4 -62.7 48 -89.8 44.3 -11.6 -1.6 -18.7 -5.5 -27.6 -15 -4 -4.2 -10.4 -10.2 -14.3 -13.3 -8.5 -6.7 -24 -22.6 -28.2 -28.8 -18.7 -27.6 -23.5 -69.2 -12.8 -109.7 5.9 -22.3 19.8 -51.9 35.8 -76.2 5.9 -9 10.6 -16.6 10.3 -16.8 -0.6 -0.6 -38 7.3 -58.1 12.3 -45.4 11.3 -78.1 27.5 -102.2 50.7 -16 15.4 -24.4 27.8 -30.6 45.4 -8.1 22.6 -8 52.7 0.3 77.5 11.7 34.9 38.1 66.9 75.7 91.8 31.2 20.7 62.7 32.3 106.7 39.1 17.3 2.7 55 3.7 74.8 1.9 82.5 -7.1 172.7 -37.6 252.3 -85.1 9.4 -5.6 19.7 -11.4 23 -13 6 -2.9 10.5 -3.7 10.5 -2 0 3.4 -24.2 20 -55 37.6 -74.2 42.5 -141.4 66.6 -210.3 75.5 -14.3 1.8 -49 4.2 -56.7 3.8 -1.9 0 -10.2 -0.4 -18.5 -0.9z m7.1 -410.1 c0.8 -0.9 -17.6 -7.1 -21.4 -7.2 -3.6 -0.1 -3.7 0 -4 4 -0.2 2.2 0.1 5.2 0.7 6.6 l1 2.6 11.6 -2.8 c6.4 -1.5 11.8 -3 12.1 -3.2z" data-index="7" style="opacity: 1;"/>
  <path d="M1960.3 1093 c-1.1 -0.5 -3.4 -2.5 -5 -4.5 -4.3 -5.4 -17.7 -16.3 -29.1 -23.5 -5.6 -3.6 -10.4 -7.3 -10.7 -8.2 -0.3 -0.9 0.7 -4.3 2.4 -7.5 4.1 -8 17.7 -30.1 23 -37.3 5.8 -7.9 7.7 -7.9 19.4 -0.6 16.2 10.2 27.7 19.9 31 26 3 5.7 2.9 15.2 -0.3 22.5 -4.2 9.6 -19.8 29.9 -25.1 32.7 -1.6 0.8 -2.9 1.4 -3.1 1.3 -0.2 0 -1.3 -0.4 -2.5 -0.9z" data-index="8"/>
  <path d="M1324.4 1048.7 c-1.2 -0.6 -5.6 -4 -9.8 -7.4 -5.5 -4.5 -13.4 -9.1 -28.4 -16.7 -12 -6 -24.3 -13 -28.9 -16.4 -23.3 -17.3 -41.9 -43.8 -50.9 -72.6 -2 -6.6 -2.4 -9 -1.5 -9.9 2 -2 4.2 0.5 11.2 12.6 9.2 16.1 16.9 26.5 26.3 35.5 12.3 11.8 23 18.3 35.8 21.8 8.6 2.4 25.8 2.8 37.7 1 40.5 -6.2 89.2 -37.2 122.5 -78.1 12.8 -15.6 12.4 -15 11.3 -20.6 -0.5 -2.7 -1.5 -4.9 -2.1 -4.9 -0.7 0 -4.9 1.4 -9.5 3 -36.7 13.4 -72.9 2.7 -81.2 -24 -4.6 -14.7 -3.1 -26.9 6.5 -56.2 7.1 -21.6 11.5 -32.6 19.1 -48.3 16.4 -33.3 32.7 -42.4 52.1 -29 16.2 11.2 34.1 40.4 41.9 68.3 1 3.4 2.2 6.2 2.7 6.2 3 0 20.1 -11 28 -17.9 14.1 -12.5 15.9 -34.1 7.9 -91.6 -10.2 -73 -13.7 -105.6 -12.8 -121.6 0.7 -13.5 4.1 -23.9 16.5 -50.9 5 -10.7 9.6 -21.5 10.3 -23.9 1.6 -5.4 1.9 -5.1 -13.9 -12.1 -28.9 -12.9 -48.2 -22.2 -98.7 -47.5 -60.3 -30.2 -79.6 -39.4 -103.3 -49 -50.9 -20.6 -90.5 -31.1 -140.2 -37.2 -20.9 -2.6 -79.3 -2.5 -100 0 -60.4 7.5 -118.5 30.2 -162.4 63.5 -12.6 9.5 -33.2 30.2 -40.9 40.9 -17.7 24.8 -27.5 49.4 -29.7 74.5 -1.9 22.2 3 40.8 17.5 65.3 7 12 21.9 27.5 33.5 35 9.2 5.9 8.6 5.3 7.3 6.6 -2.8 2.8 -22.9 -6.9 -34.5 -16.5 -14.8 -12.3 -27 -31.8 -31.8 -50.6 -4.3 -17.2 -3.7 -39.1 1.6 -60.4 10.8 -42.9 43.9 -88.4 92.3 -127.3 70.3 -56.2 159.6 -87.3 250.5 -87.3 36.2 0 73.6 4.8 111.1 14.1 48.8 12.2 89.2 28.2 157.9 62.5 62.9 31.5 129.2 62.5 159 74.4 32.4 12.9 81.2 26.5 112.6 31.4 22.7 3.5 57.2 4.6 81.5 2.6 42.5 -3.7 93.9 -17.6 128 -34.7 12.4 -6.3 33.4 -19.1 48.5 -29.8 18.7 -13.2 23.3 -15.2 21.6 -9.7 -0.8 2.5 -19.9 21.2 -31.6 30.9 -30 24.9 -55.3 41.4 -88.3 57.3 -40.6 19.6 -74.6 29.7 -123.2 36.6 -17.3 2.4 -56.9 2.9 -75.2 1 -40.6 -4.3 -92.5 -17.5 -132 -33.4 l-5.2 -2.1 -1 5.2 c-1.8 9.9 -2.1 18.4 -1.1 35.1 1.7 28.8 18.8 158.1 25.1 190.6 3.7 18.8 9.7 37.3 14.8 46 10.1 16.9 29.2 26.9 46.1 24.1 7 -1.2 10 -2.3 16.1 -6.3 5.8 -3.9 5.9 -4.5 2.5 -17.9 -2.2 -8.8 -6.2 -18.7 -16.7 -41.9 -3.9 -8.6 -4.3 -10.2 -4.2 -17 0.1 -8.8 2.9 -19 10.3 -37.5 7 -17.7 10.6 -24.5 12.8 -24.5 2.9 0 5.8 3.9 10.7 14.3 10.8 23.1 18.9 47.2 20.6 61 3.9 32.2 -17.2 96.3 -40.2 122.1 -17.2 19.4 -42.2 24.4 -64.1 13 -17.8 -9.4 -29.1 -28.1 -37.3 -61.7 -1.8 -7.7 -3.6 -14.1 -3.8 -14.4 -0.3 -0.2 -2.8 5.5 -5.6 12.7 -10.7 27.4 -18.5 39.8 -35.5 56.5 -11.8 11.6 -12.2 12.2 -13.5 18 -5.8 26.8 -24 68.5 -41 94.1 -23.7 35.7 -57 63.1 -85.8 70.5 -8.7 2.2 -22.7 2.5 -25.9 0.6z m100.4 -225.9 c-4.5 -8.6 -14.7 -19.2 -20.4 -21.4 -6 -2.3 -11.6 -0.7 -14.4 3.9 -7.2 11.8 7.9 23.4 30.8 23.6 l7.3 0.1 -3.3 -6.2z" data-index="9" style="opacity: 1;"/>
  <path d="M946 1018.2 c0 -0.4 5.6 -3.5 12.5 -7 14.5 -7.2 35.9 -20.1 46 -27.6 44.6 -33.5 71 -77.7 79.2 -132.6 1.3 -8.4 1.7 -17.7 1.7 -34.5 0 -44.5 -6.7 -75 -38.4 -175 -23.5 -74.5 -28.5 -114.6 -19.5 -157.4 4.5 -21 9 -31.6 23.3 -54 12.1 -19 15.5 -23.1 19.2 -23.1 1.7 0 3 0.5 3 1.2 0 0.6 -1.8 6.6 -3.9 13.2 -5.5 16.8 -6.5 25 -5.8 47.9 0.3 14.3 1.1 23 3.1 34.2 3.5 20.1 11.2 50.9 18.5 73.7 24.9 77.7 37 125.7 40.2 159.2 1.5 15.7 0.6 54.7 -1.6 68.6 -10.3 66.6 -46.3 134.4 -90.5 170.5 -21 17.2 -52.3 33.9 -76.9 41 -9.3 2.7 -10.1 2.9 -10.1 1.7z" data-index="10"/>
  <path d="M1607.5 990.9 c-6.1 -6.3 -17.7 -15.3 -29.6 -23.1 -6 -3.9 -11.1 -8 -11.5 -9 -0.6 -2.1 5.4 -13.5 16.9 -32 7.8 -12.6 13.1 -18.8 16.1 -18.8 4.6 0 29.3 16.6 38.6 25.9 7.3 7.3 8.4 15.8 3.5 27.6 -2.7 6.5 -12.2 20.1 -18.9 27 -7.5 7.9 -9.5 8.2 -15.1 2.4z" data-index="11"/>
  <path d="M1885.1 978.4 c-14.8 -4 -29.8 -17.2 -41.2 -36.4 -8.9 -15 -16.4 -38.4 -23.4 -72.3 -1.7 -8.6 -3.4 -15.9 -3.7 -16.2 -0.2 -0.3 -3.1 5.7 -6.3 13.3 -14.7 34.6 -19.6 42.3 -31.8 49.9 -13.7 8.6 -24.9 11.5 -44.2 11.6 -36.4 0 -49.9 -12.9 -44 -41.9 3.1 -14.8 15.4 -47 24.1 -63.2 12.5 -22.9 33.9 -41.5 77.2 -67.2 l12.2 -7.3 0 -6.2 c0 -13.2 3.7 -27 13.1 -48.2 9.3 -21.1 12.7 -27.3 14.8 -27.3 1 0 2.2 0.8 2.5 1.7 0.4 0.9 1.3 10.7 2.1 21.7 1.5 19.7 3.1 33.5 4.1 34.5 0.8 0.8 15.1 -13.9 21.2 -21.7 3.4 -4.5 9.1 -14.2 14.2 -24.5 9.3 -18.9 11.6 -21.2 11.3 -11.7 -0.5 15.3 -17.9 55.3 -35.3 81 -4.5 6.5 -8 12.8 -8 14.1 0 4.5 5.1 37.4 8 51.9 7.9 39.5 19.6 66.7 34.7 81.2 11.2 10.6 21.6 14.5 36.3 13.5 15.1 -1 26.6 -6.4 39.3 -18.6 9.7 -9.3 17.1 -19 27.2 -35.7 8.5 -14.2 13.9 -21.4 16 -21.4 1.8 0 3.5 3.1 3.5 6.4 0 1.3 -0.9 6.4 -2.1 11.2 -1.5 6.4 -2 11.2 -1.7 17.5 0.3 7.5 0.8 9.5 3.8 15.5 8.2 16 25.4 22.4 41.7 15.4 8.3 -3.5 8.7 -4.3 8 -16.2 -0.7 -12.2 -3.4 -28.5 -8.5 -49.8 -3.2 -13.9 -3.6 -17 -3.7 -29.5 l0 -14 4.4 -10 c7.7 -17.8 22.7 -48 24.5 -49.4 3.3 -2.7 5 -0.2 5.9 8.5 1.5 16.2 6.9 50.4 10.2 65.1 9.8 42.9 21.8 64.9 40.1 73.5 12.8 6 28.3 5 44.4 -2.9 5.9 -2.9 9.7 -5.8 17.8 -13.8 10 -10 10.2 -10.2 10.2 -14.8 0 -7 -3.6 -24.3 -7.7 -36.3 -11 -33.2 -26.1 -60.1 -52.6 -93.5 -26.6 -33.8 -35.3 -46.4 -40.4 -59 -4.8 -11.8 -2.5 -23.6 13.2 -69.4 18 -51.9 32.4 -69.8 84 -103.7 40.8 -26.9 85.9 -49.9 130.6 -66.7 47 -17.6 88.8 -21.8 111.6 -11.2 17.8 8.4 28.4 21.8 32.8 41.5 2.7 12.1 1.7 33.3 -2.3 48.8 -4.9 19 -13.7 37.5 -27 56.8 -22.6 32.9 -60.2 65.9 -107.8 94.6 -26.8 16.2 -63.8 33.4 -66.2 30.9 -1.1 -1.1 4.3 -4.9 23.8 -16.7 31.3 -18.9 48.6 -30.7 71 -48.6 40.3 -32.1 67.1 -64.7 72.6 -88 3.1 -13 0.3 -28.2 -7.1 -38.2 -4.8 -6.6 -14.8 -13.6 -23.7 -16.7 -13.6 -4.8 -36.7 -4.3 -61.8 1.3 -51.9 11.6 -124.1 47.7 -183.5 91.8 -14.7 11 -27.4 22.4 -28.1 25.3 -0.9 3.4 2.2 11.8 7.1 19.3 2.3 3.6 11.1 15.1 19.6 25.6 24.1 29.8 38.2 51 49.4 73.9 17.5 35.8 23.6 67 19.6 100.9 -1.4 12.4 -1.5 38.4 -0.1 45.5 3.5 18.3 16.1 28.8 30 25.1 6 -1.6 15.2 -11 20.2 -20.5 2 -3.8 7.7 -16.9 12.8 -29 25.5 -61.4 48.9 -100.5 65.1 -109.1 4.4 -2.4 13.3 -2.3 17.9 0.1 18.7 9.6 38.3 37.1 45.1 63.3 2.9 11.2 3.6 28.5 1.5 39.6 -4.3 22.7 -21.4 63.2 -30.9 73.1 -5.1 5.2 -7.5 5.6 -20.5 2.9 -8.9 -1.8 -42.9 -14.1 -61.2 -22.1 -6.9 -3 -13.1 -5.5 -13.8 -5.6 -0.8 -0.1 -3.1 4.1 -5.8 10.3 -13 30.2 -24.8 50.6 -34.8 59.7 -8 7.3 -11.6 8.8 -21.2 8.8 -7.2 0 -8.6 -0.3 -13 -3 -10.1 -6.2 -14.8 -17.6 -16.6 -39.9 -0.9 -10.7 -1.4 -13.5 -2.2 -12.1 -5.6 9.5 -17.7 26.5 -22.3 31.5 -22.8 24.7 -51.6 32.1 -76.3 19.8 -8.8 -4.4 -19.9 -15.8 -26.7 -27.1 -2.8 -4.9 -5.4 -8.4 -5.6 -8 -0.3 0.5 -2.4 5.6 -4.7 11.3 -8.2 20.7 -16 32.4 -27.1 40.5 -8.4 6.2 -15.7 8.7 -24.9 8.7 -13.7 0 -25.2 -6.5 -33.6 -19 -3.5 -5.2 -5.1 -9.2 -9 -22.1 -0.2 -0.7 -3.6 3 -7.8 8.5 -15.4 20.7 -33.3 34.2 -51.7 38.9 -7.1 1.9 -21.7 1.8 -28.8 -0.1z m-116 -120.4 c15.9 -2.3 31 -9.2 40.4 -18.6 l5.1 -5 -2.6 -21.2 c-1.5 -11.6 -2.9 -21.4 -3.2 -21.7 -0.3 -0.3 -2.7 1.4 -5.4 3.8 -6.9 6.1 -14.2 11.3 -26.9 19.2 -23.5 14.5 -27.3 17 -37 24.1 -5.5 3.9 -10.7 8.4 -11.5 9.8 -1.2 2.4 -1.2 2.8 0.6 4.1 6.7 5.1 25.6 7.7 40.5 5.5z m610.5 -37.8 c-3.2 -6.3 -10.9 -16.4 -17.5 -23 -6.5 -6.6 -14.7 -10.7 -19.5 -9.8 -4 0.8 -9.8 6.2 -12.6 11.6 l-2 3.9 3 2.1 c5 3.6 17.8 9.1 33.5 14.6 8.3 2.8 15.6 5.2 16.3 5.3 0.8 0.1 0.4 -1.5 -1.2 -4.7z" data-index="12" style="opacity: 1;"/>
  <path d="M665 960.7 c0 -0.8 4.4 -3.8 9.8 -6.7 31.4 -17.3 50.1 -31.6 65.9 -50.3 13.8 -16.5 22 -30.9 28.7 -50.7 5.2 -15.5 6.9 -27.2 6.8 -48.5 -0.1 -30.5 -2.9 -48.5 -14.8 -94.8 -25.7 -100.1 -29.4 -119 -29.4 -149 0 -19.1 1.8 -30.4 7.5 -47.6 7.5 -22.3 18.6 -42.6 36.4 -66.5 7.3 -9.8 14.5 -17.6 16.1 -17.6 2.8 0 1.8 3.8 -3.3 12.7 -10.2 17.9 -14.6 30.6 -16.7 47.8 -2.9 24.4 2.1 54.4 22 131.5 19.3 75 23.8 101.8 22.7 135.5 -1.1 34.2 -8.6 64.3 -23.7 95 -12.1 24.8 -25.6 44.2 -41.5 60 -20.1 19.9 -42.6 34.4 -71.6 45.9 -12.2 4.9 -14.9 5.4 -14.9 3.3z" data-index="13" style="opacity: 1;"/>
  <path d="M1965.6 679 c-8.5 -7.7 -24.5 -19.6 -32 -23.9 -4.7 -2.8 -5.6 -3.7 -5.6 -6.1 0 -3.5 4.5 -12.1 15.1 -28.7 10.1 -15.8 14.5 -21.3 17 -21.3 3.9 0 28.9 17.1 37 25.5 3 3 5.7 5.5 6.1 5.5 0.4 0 1.5 -1.5 2.4 -3.2 2.5 -4.9 19.9 -31 22.3 -33.5 3.1 -3.3 5.6 -2.9 14.6 2.2 15.5 8.9 31.4 22.6 33.5 29.1 3.3 9.9 -0.6 20.6 -13.9 38.5 -8.8 11.8 -9.7 12.7 -13.8 13.5 -2.6 0.5 -3.8 -0.1 -9.4 -5.1 -11.2 -10 -31 -24.5 -33.5 -24.5 -0.7 0 -2.4 2.5 -3.8 5.5 -3.3 7.4 -13.5 22 -18.8 27.2 -2.4 2.4 -5.7 4.5 -7.4 4.9 -2.7 0.5 -3.8 -0.1 -9.8 -5.6z" data-index="14"/>
  <path d="M1740.1 651.9 c-6.2 -5.8 -17.5 -14.4 -28.2 -21.7 -10.1 -6.8 -11.2 -7.9 -10.4 -11.1 1.6 -6.7 24.8 -43.9 29 -46.7 2.6 -1.7 2.8 -1.7 7.8 0.8 7.4 3.7 27.2 18.2 33.5 24.6 2.9 3 5.4 5.3 5.6 5.1 0.1 -0.2 1.8 -3.1 3.6 -6.4 4.8 -8.6 17.4 -27.5 20.6 -30.9 2.2 -2.3 3.3 -2.7 5.9 -2.3 7.5 1.2 36.6 22.7 41.1 30.2 2.9 5.1 3.2 13.3 0.7 19.7 -1.9 5 -10.7 18.9 -17 27 -4 5.1 -9.2 8.8 -12.2 8.8 -0.6 0 -4 -2.6 -7.4 -5.8 -3.4 -3.1 -8.2 -7.4 -10.7 -9.4 -5 -4 -21.8 -14.8 -23.1 -14.8 -0.5 0 -2.5 3.3 -4.5 7.3 -8.1 16.1 -20.5 30.7 -26.1 30.7 -1.9 -0.1 -4.4 -1.6 -8.2 -5.1z" data-index="15"/>
  <path d="M1907 597.2 c0 -2.1 5.2 -15.8 8 -21 5.1 -9.7 15.8 -23 24.2 -30.1 16.9 -14.5 61.4 -38.8 179.3 -97.9 30.8 -15.5 59.4 -30.2 63.5 -32.6 4.1 -2.4 7.9 -4.1 8.3 -3.6 3.5 3.3 -12 30.5 -24.5 43.1 -5.9 5.8 -8.2 7.1 -48.7 27.1 -98.6 48.6 -161.7 83.1 -193.7 105.9 -12.8 9.2 -16.4 11.2 -16.4 9.1z" data-index="16"/>
  <path d="M1254 517.4 c-6.8 -7 -18.3 -16 -30.2 -23.7 -6.9 -4.4 -10.8 -7.6 -10.8 -8.7 0 -0.9 1.2 -3.9 2.6 -6.6 3.5 -6.7 19.8 -31.7 24.8 -38.1 4.6 -6 7.1 -6.6 13.5 -3.3 6.3 3.2 27.3 19.3 31.3 24 7.4 8.6 8.4 18.5 3.1 29.8 -5.6 11.8 -22.7 31.2 -27.5 31.2 -1.5 0 -4 -1.7 -6.8 -4.6z" data-index="17"/>
 </g>
</svg>